# xmcd CD database file
#
# Track frame offsets:
#	150
#	10446
#	20188
#	26426
#	39201
#	57841
#	69266
#	81431
#	91351
#	108761
#	118546
#	127421
#	138161
#	150156
#	153803
#	168531
#
# Disc length: 2441 seconds
#
# Revision: 0
# Processed by: cddbd v1.5.2PL0 Copyright (c) Steve Scherf et al.
# Submitted via: CDex 1.70beta2
#
DISCID=c3098710
DTITLE=Honza Bican a přátelé - Písničky zmrzlého dřevorubce
DYEAR=1900
DGENRE=Country
TTITLE0=Největší frajer
TTITLE1=Nejlepší je banjo
TTITLE2=Oči zbarvené po moři
TTITLE3=Rád vzpomínám
TTITLE4=Drnová chajda
TTITLE5=Pán je rád
TTITLE6=Doma na jihu
TTITLE7=Sally Ann
TTITLE8=Břehy Ohia
TTITLE9=Cindy
TTITLE10=Green Willis
TTITLE11=Kavárna starý Lízy
TTITLE12=Když mám milou v náručí
TTITLE13=Srkala mošt
TTITLE14=Zmrzlý dřevorubec
TTITLE15=Domů na ranč
EXTD=
EXTT0=
EXTT1=
EXTT2=
EXTT3=
EXTT4=
EXTT5=
EXTT6=
EXTT7=
EXTT8=
EXTT9=
EXTT10=
EXTT11=
EXTT12=
EXTT13=
EXTT14=
EXTT15=
PLAYORDER=
